<?xml version="1.0" encoding="utf-8"?>
<!-- Generator: Adobe Illustrator 27.2.0, SVG Export Plug-In . SVG Version: 6.00 Build 0)  -->
<svg version="1.1" id="Layer_1" xmlns="http://www.w3.org/2000/svg" xmlns:xlink="http://www.w3.org/1999/xlink" x="0px" y="0px"
	 viewBox="0 0 200 224" style="enable-background:new 0 0 200 224;" xml:space="preserve">
<style type="text/css">
	.st0{fill:#FFFFFF;}
</style>
<path class="st0" d="M16,0C7.2,0,0,7.2,0,16v176c0,8.8,7.2,16,16,16h88v-56H40c-4.4,0-8-3.6-8-8s3.6-8,8-8h64c0-8.8,7.2-16,16-16H40
	c-4.4,0-8-3.6-8-8s3.6-8,8-8h80c4.4,0,8,3.6,8,8s-3.6,8-8,8h40V60c0-2.1-0.8-4.2-2.3-5.7l-52-52C104.2,0.8,102.1,0,100,0H16z
	 M96,15.2L144.8,64H104c-4.4,0-8-3.6-8-8V15.2z M128,136c-4.4,0-8,3.6-8,8v16h80v-16c0-4.4-3.6-8-8-8H128z M120,168v24h80v-24H120z
	 M120,200v16c0,4.4,3.6,8,8,8h64c4.4,0,8-3.6,8-8v-16H120z"/>
</svg>
