<?xml version="1.0" encoding="utf-8"?>
<!-- Generator: Adobe Illustrator 27.2.0, SVG Export Plug-In . SVG Version: 6.00 Build 0)  -->
<svg version="1.1" id="Layer_1" xmlns="http://www.w3.org/2000/svg" xmlns:xlink="http://www.w3.org/1999/xlink" x="0px" y="0px"
	 viewBox="0 0 138 105" style="enable-background:new 0 0 138 105;" xml:space="preserve">
<style type="text/css">
	.st0{fill:#FFFFFF;}
</style>
<path class="st0" d="M12.5,0C8.8,0,5.4,1.5,3,4s-4,5.8-4,9.5C-1,20.9,5.1,27,12.5,27H23v73.5c0,1.5,0.8,2.9,2,3.7s2.8,1,4.2,0.5
	l13.1-5.2l10.2,5.1c1.2,0.6,2.6,0.6,3.8,0.1L68,99.4l11.7,5.2c1.2,0.5,2.6,0.5,3.8-0.1l10.2-5.1l13.1,5.2c0.5,0.2,1.1,0.3,1.7,0.3
	c0.9,0,1.8-0.3,2.5-0.8c1.2-0.8,2-2.2,2-3.7V27h10.5c3.7,0,7.1-1.5,9.5-4c2.4-2.4,4-5.8,4-9.5C137,6.1,130.9,0,123.5,0H12.5z
	 M12.5,9H23v9H12.5C9.9,18,8,16.1,8,13.5c0-1.3,0.5-2.4,1.3-3.2S11.2,9,12.5,9z M113,9h10.5c2.6,0,4.5,1.9,4.5,4.5
	c0,1.3-0.5,2.4-1.3,3.2c-0.8,0.8-1.9,1.3-3.2,1.3H113V9z M48.5,24h39c2.5,0,4.5,2,4.5,4.5S90,33,87.5,33h-39C46,33,44,31,44,28.5
	S46,24,48.5,24z M48.5,45h39c2.5,0,4.5,2,4.5,4.5S90,54,87.5,54h-39C46,54,44,52,44,49.5S46,45,48.5,45z M48.5,66h24
	c2.5,0,4.5,2,4.5,4.5c0,2.5-2,4.5-4.5,4.5h-24C46,75,44,73,44,70.5C44,68,46,66,48.5,66z"/>
</svg>
