<?xml version="1.0" encoding="utf-8"?>
<!-- Generator: Adobe Illustrator 27.2.0, SVG Export Plug-In . SVG Version: 6.00 Build 0)  -->
<svg version="1.1" id="Layer_1" xmlns="http://www.w3.org/2000/svg" xmlns:xlink="http://www.w3.org/1999/xlink" x="0px" y="0px"
	 viewBox="0 0 224 176" style="enable-background:new 0 0 224 176;" xml:space="preserve">
<style type="text/css">
	.st0{fill:#FFFFFF;}
</style>
<path class="st0" d="M16,0C7.2,0,0,7.2,0,16v8h184v-8c0-8.8-7.2-16-16-16H16z M200,32v24h24v-8c0-8.8-7.2-16-16-16H200z M0,48v72
	c0,8.8,7.2,16,16,16h152c8.8,0,16-7.2,16-16V48H0z M200,80v56c0,8.8-7.2,16-16,16H40v8c0,8.8,7.2,16,16,16h152c8.8,0,16-7.2,16-16
	V80H200z"/>
</svg>
