<?xml version="1.0" encoding="utf-8"?>
<!-- Generator: Adobe Illustrator 27.2.0, SVG Export Plug-In . SVG Version: 6.00 Build 0)  -->
<svg version="1.1" id="Layer_1" xmlns="http://www.w3.org/2000/svg" xmlns:xlink="http://www.w3.org/1999/xlink" x="0px" y="0px"
	 viewBox="0 0 72 76" style="enable-background:new 0 0 72 76;" xml:space="preserve">
<style type="text/css">
	.st0{fill:#FFFFFF;}
</style>
<path class="st0" d="M24,0c-2.2,0-4,1.8-4,4v2v14h-8c-2.2,0-4-1.8-4-4s1.8-4,4-4V4C5.4,4,0,9.4,0,16v52c0,4.4,3.6,8,8,8h56
	c4.4,0,8-3.6,8-8V28c0-4.4-3.6-8-8-8h-4V4c0-2.2-1.8-4-4-4H26H24z M31.6,8h16.7c0.6,1.7,1.9,3,3.6,3.6V20h-8c0-2.2-1.8-4-4-4
	s-4,1.8-4,4h-8v-8.4C29.7,11,31,9.7,31.6,8z M56,44c2.2,0,4,1.8,4,4s-1.8,4-4,4s-4-1.8-4-4S53.8,44,56,44z"/>
</svg>
